<?xml version="1.0" standalone="no"?>
<!DOCTYPE svg PUBLIC "-//W3C//DTD SVG 20010904//EN"
 "http://www.w3.org/TR/2001/REC-SVG-20010904/DTD/svg10.dtd">
<svg version="1.0" xmlns="http://www.w3.org/2000/svg"
 width="106.000000pt" height="106.000000pt" viewBox="0 0 106.000000 106.000000"
 preserveAspectRatio="xMidYMid meet">
<metadata>
Created by potrace 1.11, written by Peter Selinger 2001-2013
</metadata>
<g transform="translate(0.000000,106.000000) scale(0.100000,-0.100000)"
fill="#000000" stroke="none">
<path d="M98 862 l-48 -3 0 -329 0 -328 193 -1 c191 0 258 8 284 34 28 29 44
87 42 154 -3 82 -14 115 -47 141 -23 18 -24 22 -9 33 40 30 51 164 19 227 -29
59 -67 70 -238 73 -82 1 -170 1 -196 -1z m327 -128 c16 -21 20 -101 5 -124 -7
-12 -37 -16 -138 -18 l-129 -4 -1 78 c0 43 1 81 3 84 2 4 58 6 124 5 107 -1
123 -4 136 -21z m17 -274 c24 -29 24 -101 1 -129 -17 -20 -28 -22 -133 -22
-63 0 -122 0 -132 0 -14 1 -16 14 -17 85 l-1 85 28 3 c15 2 74 2 132 1 94 -1
106 -4 122 -23z"/>
<path d="M714 692 c-77 -4 -95 -28 -99 -133 -4 -94 10 -134 51 -149 14 -6 72
-10 129 -10 64 0 105 -4 107 -11 2 -5 2 -27 0 -48 l-4 -38 -141 1 -142 0 -1
-51 -1 -51 173 1 c168 2 173 3 198 26 25 23 26 30 26 122 0 92 -2 100 -25 124
-16 15 -38 25 -58 26 -18 0 -70 2 -117 2 l-85 2 -1 43 -2 42 138 0 c151 0 147
-2 146 64 l-1 39 -120 1 c-66 1 -143 0 -171 -2z"/>
</g>
</svg>
